<?xml version="1.0" encoding="UTF-8"?>
<mxfile host="app.diagrams.net" modified="2025-08-14T08:15:00.000Z" agent="5.0" version="24.7.8" etag="smart-review-flow" type="device">
  <diagram name="smart-review-flow" id="smart-review-flow">
    <mxGraphModel dx="1422" dy="754" grid="1" gridSize="10" guides="1" tooltips="1" connect="1" arrows="1" fold="1" page="1" pageScale="1" pageWidth="1654" pageHeight="2800" math="0" shadow="0">
      <root>
        <mxCell id="0" />
        <mxCell id="1" parent="0" />
        
        <!-- Title -->
        <mxCell id="title" value="Smart Review 標準版システム フロー図&#xa;smart-review.js" style="text;html=1;align=center;verticalAlign=middle;whiteSpace=wrap;fontSize=16;fontStyle=1;fontColor=#000000" vertex="1" parent="1">
          <mxGeometry x="300" y="40" width="400" height="40" as="geometry" />
        </mxCell>
        
        <!-- Start -->
        <mxCell id="start" value="🚀 開始&#xa;Smart Review 実行" style="ellipse;whiteSpace=wrap;html=1;fillColor=#e1d5e7;strokeColor=#9673a6;fontSize=14;fontStyle=1" vertex="1" parent="1">
          <mxGeometry x="400" y="100" width="200" height="80" as="geometry" />
        </mxCell>
        
        <!-- Initialization -->
        <mxCell id="initialization" value="🔧 初期化&#xa;実行コンテキスト設定" style="rounded=1;whiteSpace=wrap;html=1;fillColor=#d5e8d4;strokeColor=#82b366;fontSize=12;fontStyle=1" vertex="1" parent="1">
          <mxGeometry x="400" y="220" width="200" height="60" as="geometry" />
        </mxCell>
        
        <!-- Agent Definitions -->
        <mxCell id="agentdef" value="🤖 エージェント定義&#xa;• security-error-xss-analyzer&#xa;• super-debugger-perfectionist&#xa;• deep-code-reviewer&#xa;• project-documentation-updater" style="rounded=1;whiteSpace=wrap;html=1;fillColor=#e1d5e7;strokeColor=#9673a6;fontSize=10" vertex="1" parent="1">
          <mxGeometry x="650" y="200" width="200" height="100" as="geometry" />
        </mxCell>
        
        <!-- Context Setup -->
        <mxCell id="contextsetup" value="📋 実行コンテキスト&#xa;• changedFiles[]&#xa;• allIssues[]&#xa;• todoList[]&#xa;• iterations[]&#xa;• metrics" style="rounded=1;whiteSpace=wrap;html=1;fillColor=#fff2cc;strokeColor=#d6b656;fontSize=10" vertex="1" parent="1">
          <mxGeometry x="150" y="200" width="180" height="100" as="geometry" />
        </mxCell>
        
        <!-- Output Directory -->
        <mxCell id="outputdir" value="📁 出力ディレクトリ作成&#xa;mkdir -p outputDir" style="rounded=1;whiteSpace=wrap;html=1;fillColor=#d5e8d4;strokeColor=#82b366;fontSize=11" vertex="1" parent="1">
          <mxGeometry x="400" y="320" width="200" height="50" as="geometry" />
        </mxCell>
        
        <!-- Scope Branch -->
        <mxCell id="scopebranch" value="🔀 実行モード選択" style="rhombus;whiteSpace=wrap;html=1;fillColor=#fff2cc;strokeColor=#d6b656;fontSize=12;fontStyle=1" vertex="1" parent="1">
          <mxGeometry x="400" y="400" width="200" height="80" as="geometry" />
        </mxCell>
        
        <!-- All Mode -->
        <mxCell id="allmode" value="📊 全体分析モード&#xa;scope = 'all'" style="rounded=1;whiteSpace=wrap;html=1;fillColor=#d5e8d4;strokeColor=#82b366;fontSize=12;fontStyle=1" vertex="1" parent="1">
          <mxGeometry x="200" y="520" width="180" height="60" as="geometry" />
        </mxCell>
        
        <!-- Changes Mode -->
        <mxCell id="changesmode" value="🔄 差分修正モード&#xa;scope = 'changes'" style="rounded=1;whiteSpace=wrap;html=1;fillColor=#f8cecc;strokeColor=#b85450;fontSize=12;fontStyle=1" vertex="1" parent="1">
          <mxGeometry x="620" y="520" width="180" height="60" as="geometry" />
        </mxCell>
        
        <!-- All Mode Process -->
        <mxCell id="allmodeprocess" value="🔍 全エージェント実行&#xa;for agent in reviewAgents" style="rounded=1;whiteSpace=wrap;html=1;fillColor=#d5e8d4;strokeColor=#82b366;fontSize=11;fontStyle=1" vertex="1" parent="1">
          <mxGeometry x="200" y="620" width="180" height="50" as="geometry" />
        </mxCell>
        
        <!-- Agent Execution -->
        <mxCell id="agentexec" value="🤖 executeAgent()&#xa;エージェント実行" style="rounded=1;whiteSpace=wrap;html=1;fillColor=#ffe6cc;strokeColor=#d79b00;fontSize=11" vertex="1" parent="1">
          <mxGeometry x="200" y="700" width="180" height="50" as="geometry" />
        </mxCell>
        
        <!-- TODO Generation -->
        <mxCell id="todogen" value="📋 TODO生成&#xa;generateTodoList()" style="rounded=1;whiteSpace=wrap;html=1;fillColor=#d5e8d4;strokeColor=#82b366;fontSize=11" vertex="1" parent="1">
          <mxGeometry x="200" y="780" width="180" height="50" as="geometry" />
        </mxCell>
        
        <!-- TODO File Format -->
        <mxCell id="todoformat" value="📄 TODOファイル生成&#xa;formatTodoFile()" style="rounded=1;whiteSpace=wrap;html=1;fillColor=#d5e8d4;strokeColor=#82b366;fontSize=11" vertex="1" parent="1">
          <mxGeometry x="200" y="860" width="180" height="50" as="geometry" />
        </mxCell>
        
        <!-- TODO File Save -->
        <mxCell id="todosave" value="💾 TODOファイル保存&#xa;TODO-{timestamp}.md" style="rounded=1;whiteSpace=wrap;html=1;fillColor=#d5e8d4;strokeColor=#82b366;fontSize=11" vertex="1" parent="1">
          <mxGeometry x="200" y="940" width="180" height="50" as="geometry" />
        </mxCell>
        
        <!-- Summary Display -->
        <mxCell id="summarydisplay" value="📊 サマリー表示&#xa;優先度別件数表示" style="rounded=1;whiteSpace=wrap;html=1;fillColor=#d5e8d4;strokeColor=#82b366;fontSize=11" vertex="1" parent="1">
          <mxGeometry x="200" y="1020" width="180" height="50" as="geometry" />
        </mxCell>
        
        <!-- Changes Mode Process -->
        <mxCell id="changesprocess" value="🔍 変更ファイル検出&#xa;detectChangedFiles()" style="rounded=1;whiteSpace=wrap;html=1;fillColor=#f8cecc;strokeColor=#b85450;fontSize=11;fontStyle=1" vertex="1" parent="1">
          <mxGeometry x="620" y="620" width="180" height="50" as="geometry" />
        </mxCell>
        
        <!-- Changes Check -->
        <mxCell id="changescheck" value="📋 変更ファイル確認" style="rhombus;whiteSpace=wrap;html=1;fillColor=#fff2cc;strokeColor=#d6b656;fontSize=11" vertex="1" parent="1">
          <mxGeometry x="640" y="710" width="140" height="60" as="geometry" />
        </mxCell>
        
        <!-- Iteration Loop -->
        <mxCell id="iterloop" value="🔄 イテレーションループ&#xa;while hasErrors" style="rounded=1;whiteSpace=wrap;html=1;fillColor=#f8cecc;strokeColor=#b85450;fontSize=11;fontStyle=1" vertex="1" parent="1">
          <mxGeometry x="620" y="800" width="180" height="60" as="geometry" />
        </mxCell>
        
        <!-- Iteration Agent Exec -->
        <mxCell id="iteragentexec" value="🤖 各エージェント実行&#xa;executeAgent(files, iteration)" style="rounded=1;whiteSpace=wrap;html=1;fillColor=#ffe6cc;strokeColor=#d79b00;fontSize=10" vertex="1" parent="1">
          <mxGeometry x="620" y="900" width="180" height="50" as="geometry" />
        </mxCell>
        
        <!-- Auto Fix -->
        <mxCell id="autofix" value="🔧 自動修正&#xa;Critical &amp; High のみ" style="rounded=1;whiteSpace=wrap;html=1;fillColor=#d5e8d4;strokeColor=#82b366;fontSize=10" vertex="1" parent="1">
          <mxGeometry x="620" y="980" width="180" height="40" as="geometry" />
        </mxCell>
        
        <!-- Comment Annotation -->
        <mxCell id="commentanno" value="📝 コメント注釈&#xa;code-comment-annotator-ja" style="rounded=1;whiteSpace=wrap;html=1;fillColor=#d5e8d4;strokeColor=#82b366;fontSize=11" vertex="1" parent="1">
          <mxGeometry x="620" y="1050" width="180" height="50" as="geometry" />
        </mxCell>
        
        <!-- Final Report -->
        <mxCell id="finalreport" value="📄 最終レポート生成&#xa;generateFinalReport()" style="rounded=1;whiteSpace=wrap;html=1;fillColor=#d5e8d4;strokeColor=#82b366;fontSize=12;fontStyle=1" vertex="1" parent="1">
          <mxGeometry x="400" y="1150" width="200" height="60" as="geometry" />
        </mxCell>
        
        <!-- Report Save -->
        <mxCell id="reportsave" value="💾 レポート保存&#xa;final-report-{timestamp}.md" style="rounded=1;whiteSpace=wrap;html=1;fillColor=#d5e8d4;strokeColor=#82b366;fontSize=11" vertex="1" parent="1">
          <mxGeometry x="400" y="1240" width="200" height="50" as="geometry" />
        </mxCell>
        
        <!-- Success End -->
        <mxCell id="success" value="✅ 成功完了&#xa;Smart Review 完了" style="ellipse;whiteSpace=wrap;html=1;fillColor=#d5e8d4;strokeColor=#82b366;fontSize=14;fontStyle=1" vertex="1" parent="1">
          <mxGeometry x="400" y="1340" width="200" height="80" as="geometry" />
        </mxCell>
        
        <!-- Main Flow Arrows -->
        <mxCell id="arrow1" style="edgeStyle=orthogonalEdgeStyle;rounded=0;orthogonalLoop=1;jettySize=auto;html=1;entryX=0.5;entryY=0;entryDx=0;entryDy=0;" edge="1" parent="1" source="start" target="initialization">
          <mxGeometry relative="1" as="geometry" />
        </mxCell>
        
        <mxCell id="arrow2" style="edgeStyle=orthogonalEdgeStyle;rounded=0;orthogonalLoop=1;jettySize=auto;html=1;entryX=0.5;entryY=0;entryDx=0;entryDy=0;" edge="1" parent="1" source="initialization" target="outputdir">
          <mxGeometry relative="1" as="geometry" />
        </mxCell>
        
        <mxCell id="arrow3" style="edgeStyle=orthogonalEdgeStyle;rounded=0;orthogonalLoop=1;jettySize=auto;html=1;entryX=0.5;entryY=0;entryDx=0;entryDy=0;" edge="1" parent="1" source="outputdir" target="scopebranch">
          <mxGeometry relative="1" as="geometry" />
        </mxCell>
        
        <mxCell id="arrow4" style="edgeStyle=orthogonalEdgeStyle;rounded=0;orthogonalLoop=1;jettySize=auto;html=1;entryX=0.5;entryY=0;entryDx=0;entryDy=0;" edge="1" parent="1" source="scopebranch" target="allmode">
          <mxGeometry relative="1" as="geometry" />
        </mxCell>
        <mxCell id="arrow4label" value="all" style="edgeLabel;html=1;align=center;verticalAlign=middle;resizable=0;points=[];fontColor=#000000" vertex="1" connectable="0" parent="arrow4">
          <mxGeometry x="-0.1" y="-2" relative="1" as="geometry">
            <mxPoint as="offset" />
          </mxGeometry>
        </mxCell>
        
        <mxCell id="arrow5" style="edgeStyle=orthogonalEdgeStyle;rounded=0;orthogonalLoop=1;jettySize=auto;html=1;entryX=0.5;entryY=0;entryDx=0;entryDy=0;" edge="1" parent="1" source="scopebranch" target="changesmode">
          <mxGeometry relative="1" as="geometry" />
        </mxCell>
        <mxCell id="arrow5label" value="changes" style="edgeLabel;html=1;align=center;verticalAlign=middle;resizable=0;points=[];fontColor=#000000" vertex="1" connectable="0" parent="arrow5">
          <mxGeometry x="-0.1" y="-2" relative="1" as="geometry">
            <mxPoint as="offset" />
          </mxGeometry>
        </mxCell>
        
        <!-- All Mode Flow -->
        <mxCell id="arrow6" style="edgeStyle=orthogonalEdgeStyle;rounded=0;orthogonalLoop=1;jettySize=auto;html=1;entryX=0.5;entryY=0;entryDx=0;entryDy=0;" edge="1" parent="1" source="allmode" target="allmodeprocess">
          <mxGeometry relative="1" as="geometry" />
        </mxCell>
        
        <mxCell id="arrow7" style="edgeStyle=orthogonalEdgeStyle;rounded=0;orthogonalLoop=1;jettySize=auto;html=1;entryX=0.5;entryY=0;entryDx=0;entryDy=0;" edge="1" parent="1" source="allmodeprocess" target="agentexec">
          <mxGeometry relative="1" as="geometry" />
        </mxCell>
        
        <mxCell id="arrow8" style="edgeStyle=orthogonalEdgeStyle;rounded=0;orthogonalLoop=1;jettySize=auto;html=1;entryX=0.5;entryY=0;entryDx=0;entryDy=0;" edge="1" parent="1" source="agentexec" target="todogen">
          <mxGeometry relative="1" as="geometry" />
        </mxCell>
        
        <mxCell id="arrow9" style="edgeStyle=orthogonalEdgeStyle;rounded=0;orthogonalLoop=1;jettySize=auto;html=1;entryX=0.5;entryY=0;entryDx=0;entryDy=0;" edge="1" parent="1" source="todogen" target="todoformat">
          <mxGeometry relative="1" as="geometry" />
        </mxCell>
        
        <mxCell id="arrow10" style="edgeStyle=orthogonalEdgeStyle;rounded=0;orthogonalLoop=1;jettySize=auto;html=1;entryX=0.5;entryY=0;entryDx=0;entryDy=0;" edge="1" parent="1" source="todoformat" target="todosave">
          <mxGeometry relative="1" as="geometry" />
        </mxCell>
        
        <mxCell id="arrow11" style="edgeStyle=orthogonalEdgeStyle;rounded=0;orthogonalLoop=1;jettySize=auto;html=1;entryX=0.5;entryY=0;entryDx=0;entryDy=0;" edge="1" parent="1" source="todosave" target="summarydisplay">
          <mxGeometry relative="1" as="geometry" />
        </mxCell>
        
        <!-- Changes Mode Flow -->
        <mxCell id="arrow12" style="edgeStyle=orthogonalEdgeStyle;rounded=0;orthogonalLoop=1;jettySize=auto;html=1;entryX=0.5;entryY=0;entryDx=0;entryDy=0;" edge="1" parent="1" source="changesmode" target="changesprocess">
          <mxGeometry relative="1" as="geometry" />
        </mxCell>
        
        <mxCell id="arrow13" style="edgeStyle=orthogonalEdgeStyle;rounded=0;orthogonalLoop=1;jettySize=auto;html=1;entryX=0.5;entryY=0;entryDx=0;entryDy=0;" edge="1" parent="1" source="changesprocess" target="changescheck">
          <mxGeometry relative="1" as="geometry" />
        </mxCell>
        
        <mxCell id="arrow15" style="edgeStyle=orthogonalEdgeStyle;rounded=0;orthogonalLoop=1;jettySize=auto;html=1;entryX=0.5;entryY=0;entryDx=0;entryDy=0;" edge="1" parent="1" source="changescheck" target="iterloop">
          <mxGeometry relative="1" as="geometry" />
        </mxCell>
        <mxCell id="arrow15label" value="変更あり" style="edgeLabel;html=1;align=center;verticalAlign=middle;resizable=0;points=[];fontColor=#000000" vertex="1" connectable="0" parent="arrow15">
          <mxGeometry x="-0.1" y="-2" relative="1" as="geometry">
            <mxPoint as="offset" />
          </mxGeometry>
        </mxCell>
        
        <mxCell id="arrow16" style="edgeStyle=orthogonalEdgeStyle;rounded=0;orthogonalLoop=1;jettySize=auto;html=1;entryX=0.5;entryY=0;entryDx=0;entryDy=0;" edge="1" parent="1" source="iterloop" target="iteragentexec">
          <mxGeometry relative="1" as="geometry" />
        </mxCell>
        
        <mxCell id="arrow17" style="edgeStyle=orthogonalEdgeStyle;rounded=0;orthogonalLoop=1;jettySize=auto;html=1;entryX=0.5;entryY=0;entryDx=0;entryDy=0;" edge="1" parent="1" source="iteragentexec" target="autofix">
          <mxGeometry relative="1" as="geometry" />
        </mxCell>
        
        <mxCell id="arrow20" style="edgeStyle=orthogonalEdgeStyle;rounded=0;orthogonalLoop=1;jettySize=auto;html=1;entryX=0.5;entryY=0;entryDx=0;entryDy=0;" edge="1" parent="1" source="autofix" target="commentanno">
          <mxGeometry relative="1" as="geometry" />
        </mxCell>
        
        <!-- Final Report Flow -->
        <mxCell id="arrow21" style="edgeStyle=orthogonalEdgeStyle;rounded=0;orthogonalLoop=1;jettySize=auto;html=1;entryX=0;entryY=0.5;entryDx=0;entryDy=0;" edge="1" parent="1" source="summarydisplay" target="finalreport">
          <mxGeometry relative="1" as="geometry">
            <Array as="points">
              <mxPoint x="290" y="1180" />
            </Array>
          </mxGeometry>
        </mxCell>
        
        <mxCell id="arrow22" style="edgeStyle=orthogonalEdgeStyle;rounded=0;orthogonalLoop=1;jettySize=auto;html=1;entryX=1;entryY=0.5;entryDx=0;entryDy=0;" edge="1" parent="1" source="commentanno" target="finalreport">
          <mxGeometry relative="1" as="geometry">
            <Array as="points">
              <mxPoint x="710" y="1180" />
            </Array>
          </mxGeometry>
        </mxCell>
        
        <mxCell id="arrow23" style="edgeStyle=orthogonalEdgeStyle;rounded=0;orthogonalLoop=1;jettySize=auto;html=1;entryX=0.5;entryY=0;entryDx=0;entryDy=0;" edge="1" parent="1" source="finalreport" target="reportsave">
          <mxGeometry relative="1" as="geometry" />
        </mxCell>
        
        <mxCell id="arrow24" style="edgeStyle=orthogonalEdgeStyle;rounded=0;orthogonalLoop=1;jettySize=auto;html=1;entryX=0.5;entryY=0;entryDx=0;entryDy=0;" edge="1" parent="1" source="reportsave" target="success">
          <mxGeometry relative="1" as="geometry" />
        </mxCell>
        
        <!-- Detail Arrows -->
        <mxCell id="arrowdetail1" style="edgeStyle=orthogonalEdgeStyle;rounded=0;orthogonalLoop=1;jettySize=auto;html=1;entryX=1;entryY=0.5;entryDx=0;entryDy=0;dashed=1;" edge="1" parent="1" source="initialization" target="contextsetup">
          <mxGeometry relative="1" as="geometry" />
        </mxCell>
        
        <mxCell id="arrowdetail2" style="edgeStyle=orthogonalEdgeStyle;rounded=0;orthogonalLoop=1;jettySize=auto;html=1;entryX=0;entryY=0.5;entryDx=0;entryDy=0;dashed=1;" edge="1" parent="1" source="initialization" target="agentdef">
          <mxGeometry relative="1" as="geometry" />
        </mxCell>
        
        <!-- Legend -->
        <mxCell id="legend" value="🔍 凡例&#xa;━━ メインフロー&#xa;┅┅ 詳細処理&#xa;&#xa;📊 全体分析モード&#xa;🔄 差分修正モード&#xa;🤖 エージェント実行&#xa;📋 TODO生成&#xa;📄 レポート生成" style="rounded=1;whiteSpace=wrap;html=1;fillColor=#f5f5f5;strokeColor=#666666;fontSize=10;align=left;fontColor=#000000" vertex="1" parent="1">
          <mxGeometry x="50" y="100" width="140" height="140" as="geometry" />
        </mxCell>
        
      </root>
    </mxGraphModel>
  </diagram>
</mxfile>